<?xml version="1.0" encoding="utf-8" standalone="no"?>
<!DOCTYPE svg PUBLIC "-//W3C//DTD SVG 1.1//EN"
  "http://www.w3.org/Graphics/SVG/1.1/DTD/svg11.dtd">
<svg xmlns:xlink="http://www.w3.org/1999/xlink" width="441.930937pt" height="325.986375pt" viewBox="0 0 441.930937 325.986375" xmlns="http://www.w3.org/2000/svg" version="1.1">
 <metadata>
  <rdf:RDF xmlns:dc="http://purl.org/dc/elements/1.1/" xmlns:cc="http://creativecommons.org/ns#" xmlns:rdf="http://www.w3.org/1999/02/22-rdf-syntax-ns#">
   <cc:Work>
    <dc:type rdf:resource="http://purl.org/dc/dcmitype/StillImage"/>
    <dc:date>2025-11-26T17:43:35.018717</dc:date>
    <dc:format>image/svg+xml</dc:format>
    <dc:creator>
     <cc:Agent>
      <dc:title>Matplotlib v3.5.1, https://matplotlib.org/</dc:title>
     </cc:Agent>
    </dc:creator>
   </cc:Work>
  </rdf:RDF>
 </metadata>
 <defs>
  <style type="text/css">*{stroke-linejoin: round; stroke-linecap: butt}</style>
 </defs>
 <g id="figure_1">
  <g id="patch_1">
   <path d="M 0 325.986375 
L 441.930937 325.986375 
L 441.930937 0 
L 0 0 
z
" style="fill: #ffffff"/>
  </g>
  <g id="axes_1">
   <g id="patch_2">
    <path d="M 77.610938 288.430125 
L 434.730937 288.430125 
L 434.730937 22.318125 
L 77.610938 22.318125 
z
" style="fill: #ffffff"/>
   </g>
   <g id="matplotlib.axis_1">
    <g id="xtick_1">
     <g id="line2d_1">
      <defs>
       <path id="m5e56314d5d" d="M 0 0 
L 0 3.5 
" style="stroke: #000000; stroke-width: 0.8"/>
      </defs>
      <g>
       <use xlink:href="#m5e56314d5d" x="129.817719" y="288.430125" style="stroke: #000000; stroke-width: 0.8"/>
      </g>
     </g>
     <g id="text_1">
      <!-- 29 -->
      <g transform="translate(123.455219 303.028562)scale(0.1 -0.1)">
       <defs>
        <path id="DejaVuSans-32" d="M 1228 531 
L 3431 531 
L 3431 0 
L 469 0 
L 469 531 
Q 828 903 1448 1529 
Q 2069 2156 2228 2338 
Q 2531 2678 2651 2914 
Q 2772 3150 2772 3378 
Q 2772 3750 2511 3984 
Q 2250 4219 1831 4219 
Q 1534 4219 1204 4116 
Q 875 4013 500 3803 
L 500 4441 
Q 881 4594 1212 4672 
Q 1544 4750 1819 4750 
Q 2544 4750 2975 4387 
Q 3406 4025 3406 3419 
Q 3406 3131 3298 2873 
Q 3191 2616 2906 2266 
Q 2828 2175 2409 1742 
Q 1991 1309 1228 531 
z
" transform="scale(0.015625)"/>
        <path id="DejaVuSans-39" d="M 703 97 
L 703 672 
Q 941 559 1184 500 
Q 1428 441 1663 441 
Q 2288 441 2617 861 
Q 2947 1281 2994 2138 
Q 2813 1869 2534 1725 
Q 2256 1581 1919 1581 
Q 1219 1581 811 2004 
Q 403 2428 403 3163 
Q 403 3881 828 4315 
Q 1253 4750 1959 4750 
Q 2769 4750 3195 4129 
Q 3622 3509 3622 2328 
Q 3622 1225 3098 567 
Q 2575 -91 1691 -91 
Q 1453 -91 1209 -44 
Q 966 3 703 97 
z
M 1959 2075 
Q 2384 2075 2632 2365 
Q 2881 2656 2881 3163 
Q 2881 3666 2632 3958 
Q 2384 4250 1959 4250 
Q 1534 4250 1286 3958 
Q 1038 3666 1038 3163 
Q 1038 2656 1286 2365 
Q 1534 2075 1959 2075 
z
" transform="scale(0.015625)"/>
       </defs>
       <use xlink:href="#DejaVuSans-32"/>
       <use xlink:href="#DejaVuSans-39" x="63.623047"/>
      </g>
     </g>
    </g>
    <g id="xtick_2">
     <g id="line2d_2">
      <g>
       <use xlink:href="#m5e56314d5d" x="187.946156" y="288.430125" style="stroke: #000000; stroke-width: 0.8"/>
      </g>
     </g>
     <g id="text_2">
      <!-- 30 -->
      <g transform="translate(181.583656 303.028562)scale(0.1 -0.1)">
       <defs>
        <path id="DejaVuSans-33" d="M 2597 2516 
Q 3050 2419 3304 2112 
Q 3559 1806 3559 1356 
Q 3559 666 3084 287 
Q 2609 -91 1734 -91 
Q 1441 -91 1130 -33 
Q 819 25 488 141 
L 488 750 
Q 750 597 1062 519 
Q 1375 441 1716 441 
Q 2309 441 2620 675 
Q 2931 909 2931 1356 
Q 2931 1769 2642 2001 
Q 2353 2234 1838 2234 
L 1294 2234 
L 1294 2753 
L 1863 2753 
Q 2328 2753 2575 2939 
Q 2822 3125 2822 3475 
Q 2822 3834 2567 4026 
Q 2313 4219 1838 4219 
Q 1578 4219 1281 4162 
Q 984 4106 628 3988 
L 628 4550 
Q 988 4650 1302 4700 
Q 1616 4750 1894 4750 
Q 2613 4750 3031 4423 
Q 3450 4097 3450 3541 
Q 3450 3153 3228 2886 
Q 3006 2619 2597 2516 
z
" transform="scale(0.015625)"/>
        <path id="DejaVuSans-30" d="M 2034 4250 
Q 1547 4250 1301 3770 
Q 1056 3291 1056 2328 
Q 1056 1369 1301 889 
Q 1547 409 2034 409 
Q 2525 409 2770 889 
Q 3016 1369 3016 2328 
Q 3016 3291 2770 3770 
Q 2525 4250 2034 4250 
z
M 2034 4750 
Q 2819 4750 3233 4129 
Q 3647 3509 3647 2328 
Q 3647 1150 3233 529 
Q 2819 -91 2034 -91 
Q 1250 -91 836 529 
Q 422 1150 422 2328 
Q 422 3509 836 4129 
Q 1250 4750 2034 4750 
z
" transform="scale(0.015625)"/>
       </defs>
       <use xlink:href="#DejaVuSans-33"/>
       <use xlink:href="#DejaVuSans-30" x="63.623047"/>
      </g>
     </g>
    </g>
    <g id="xtick_3">
     <g id="line2d_3">
      <g>
       <use xlink:href="#m5e56314d5d" x="246.074593" y="288.430125" style="stroke: #000000; stroke-width: 0.8"/>
      </g>
     </g>
     <g id="text_3">
      <!-- 31 -->
      <g transform="translate(239.712093 303.028562)scale(0.1 -0.1)">
       <defs>
        <path id="DejaVuSans-31" d="M 794 531 
L 1825 531 
L 1825 4091 
L 703 3866 
L 703 4441 
L 1819 4666 
L 2450 4666 
L 2450 531 
L 3481 531 
L 3481 0 
L 794 0 
L 794 531 
z
" transform="scale(0.015625)"/>
       </defs>
       <use xlink:href="#DejaVuSans-33"/>
       <use xlink:href="#DejaVuSans-31" x="63.623047"/>
      </g>
     </g>
    </g>
    <g id="xtick_4">
     <g id="line2d_4">
      <g>
       <use xlink:href="#m5e56314d5d" x="304.20303" y="288.430125" style="stroke: #000000; stroke-width: 0.8"/>
      </g>
     </g>
     <g id="text_4">
      <!-- 32 -->
      <g transform="translate(297.84053 303.028562)scale(0.1 -0.1)">
       <use xlink:href="#DejaVuSans-33"/>
       <use xlink:href="#DejaVuSans-32" x="63.623047"/>
      </g>
     </g>
    </g>
    <g id="xtick_5">
     <g id="line2d_5">
      <g>
       <use xlink:href="#m5e56314d5d" x="362.331467" y="288.430125" style="stroke: #000000; stroke-width: 0.8"/>
      </g>
     </g>
     <g id="text_5">
      <!-- 33 -->
      <g transform="translate(355.968967 303.028562)scale(0.1 -0.1)">
       <use xlink:href="#DejaVuSans-33"/>
       <use xlink:href="#DejaVuSans-33" x="63.623047"/>
      </g>
     </g>
    </g>
    <g id="xtick_6">
     <g id="line2d_6">
      <g>
       <use xlink:href="#m5e56314d5d" x="420.459904" y="288.430125" style="stroke: #000000; stroke-width: 0.8"/>
      </g>
     </g>
     <g id="text_6">
      <!-- 34 -->
      <g transform="translate(414.097404 303.028562)scale(0.1 -0.1)">
       <defs>
        <path id="DejaVuSans-34" d="M 2419 4116 
L 825 1625 
L 2419 1625 
L 2419 4116 
z
M 2253 4666 
L 3047 4666 
L 3047 1625 
L 3713 1625 
L 3713 1100 
L 3047 1100 
L 3047 0 
L 2419 0 
L 2419 1100 
L 313 1100 
L 313 1709 
L 2253 4666 
z
" transform="scale(0.015625)"/>
       </defs>
       <use xlink:href="#DejaVuSans-33"/>
       <use xlink:href="#DejaVuSans-34" x="63.623047"/>
      </g>
     </g>
    </g>
    <g id="text_7">
     <!-- X [m] -->
     <g transform="translate(242.385 316.706687)scale(0.1 -0.1)">
      <defs>
       <path id="DejaVuSans-58" d="M 403 4666 
L 1081 4666 
L 2241 2931 
L 3406 4666 
L 4084 4666 
L 2584 2425 
L 4184 0 
L 3506 0 
L 2194 1984 
L 872 0 
L 191 0 
L 1856 2491 
L 403 4666 
z
" transform="scale(0.015625)"/>
       <path id="DejaVuSans-20" transform="scale(0.015625)"/>
       <path id="DejaVuSans-5b" d="M 550 4863 
L 1875 4863 
L 1875 4416 
L 1125 4416 
L 1125 -397 
L 1875 -397 
L 1875 -844 
L 550 -844 
L 550 4863 
z
" transform="scale(0.015625)"/>
       <path id="DejaVuSans-6d" d="M 3328 2828 
Q 3544 3216 3844 3400 
Q 4144 3584 4550 3584 
Q 5097 3584 5394 3201 
Q 5691 2819 5691 2113 
L 5691 0 
L 5113 0 
L 5113 2094 
Q 5113 2597 4934 2840 
Q 4756 3084 4391 3084 
Q 3944 3084 3684 2787 
Q 3425 2491 3425 1978 
L 3425 0 
L 2847 0 
L 2847 2094 
Q 2847 2600 2669 2842 
Q 2491 3084 2119 3084 
Q 1678 3084 1418 2786 
Q 1159 2488 1159 1978 
L 1159 0 
L 581 0 
L 581 3500 
L 1159 3500 
L 1159 2956 
Q 1356 3278 1631 3431 
Q 1906 3584 2284 3584 
Q 2666 3584 2933 3390 
Q 3200 3197 3328 2828 
z
" transform="scale(0.015625)"/>
       <path id="DejaVuSans-5d" d="M 1947 4863 
L 1947 -844 
L 622 -844 
L 622 -397 
L 1369 -397 
L 1369 4416 
L 622 4416 
L 622 4863 
L 1947 4863 
z
" transform="scale(0.015625)"/>
      </defs>
      <use xlink:href="#DejaVuSans-58"/>
      <use xlink:href="#DejaVuSans-20" x="68.505859"/>
      <use xlink:href="#DejaVuSans-5b" x="100.292969"/>
      <use xlink:href="#DejaVuSans-6d" x="139.306641"/>
      <use xlink:href="#DejaVuSans-5d" x="236.71875"/>
     </g>
    </g>
    <g id="text_8">
     <!-- 1e−5+1.0690000000 -->
     <g transform="translate(325.927812 315.706687)scale(0.1 -0.1)">
      <defs>
       <path id="DejaVuSans-65" d="M 3597 1894 
L 3597 1613 
L 953 1613 
Q 991 1019 1311 708 
Q 1631 397 2203 397 
Q 2534 397 2845 478 
Q 3156 559 3463 722 
L 3463 178 
Q 3153 47 2828 -22 
Q 2503 -91 2169 -91 
Q 1331 -91 842 396 
Q 353 884 353 1716 
Q 353 2575 817 3079 
Q 1281 3584 2069 3584 
Q 2775 3584 3186 3129 
Q 3597 2675 3597 1894 
z
M 3022 2063 
Q 3016 2534 2758 2815 
Q 2500 3097 2075 3097 
Q 1594 3097 1305 2825 
Q 1016 2553 972 2059 
L 3022 2063 
z
" transform="scale(0.015625)"/>
       <path id="DejaVuSans-2212" d="M 678 2272 
L 4684 2272 
L 4684 1741 
L 678 1741 
L 678 2272 
z
" transform="scale(0.015625)"/>
       <path id="DejaVuSans-35" d="M 691 4666 
L 3169 4666 
L 3169 4134 
L 1269 4134 
L 1269 2991 
Q 1406 3038 1543 3061 
Q 1681 3084 1819 3084 
Q 2600 3084 3056 2656 
Q 3513 2228 3513 1497 
Q 3513 744 3044 326 
Q 2575 -91 1722 -91 
Q 1428 -91 1123 -41 
Q 819 9 494 109 
L 494 744 
Q 775 591 1075 516 
Q 1375 441 1709 441 
Q 2250 441 2565 725 
Q 2881 1009 2881 1497 
Q 2881 1984 2565 2268 
Q 2250 2553 1709 2553 
Q 1456 2553 1204 2497 
Q 953 2441 691 2322 
L 691 4666 
z
" transform="scale(0.015625)"/>
       <path id="DejaVuSans-2b" d="M 2944 4013 
L 2944 2272 
L 4684 2272 
L 4684 1741 
L 2944 1741 
L 2944 0 
L 2419 0 
L 2419 1741 
L 678 1741 
L 678 2272 
L 2419 2272 
L 2419 4013 
L 2944 4013 
z
" transform="scale(0.015625)"/>
       <path id="DejaVuSans-2e" d="M 684 794 
L 1344 794 
L 1344 0 
L 684 0 
L 684 794 
z
" transform="scale(0.015625)"/>
       <path id="DejaVuSans-36" d="M 2113 2584 
Q 1688 2584 1439 2293 
Q 1191 2003 1191 1497 
Q 1191 994 1439 701 
Q 1688 409 2113 409 
Q 2538 409 2786 701 
Q 3034 994 3034 1497 
Q 3034 2003 2786 2293 
Q 2538 2584 2113 2584 
z
M 3366 4563 
L 3366 3988 
Q 3128 4100 2886 4159 
Q 2644 4219 2406 4219 
Q 1781 4219 1451 3797 
Q 1122 3375 1075 2522 
Q 1259 2794 1537 2939 
Q 1816 3084 2150 3084 
Q 2853 3084 3261 2657 
Q 3669 2231 3669 1497 
Q 3669 778 3244 343 
Q 2819 -91 2113 -91 
Q 1303 -91 875 529 
Q 447 1150 447 2328 
Q 447 3434 972 4092 
Q 1497 4750 2381 4750 
Q 2619 4750 2861 4703 
Q 3103 4656 3366 4563 
z
" transform="scale(0.015625)"/>
      </defs>
      <use xlink:href="#DejaVuSans-31"/>
      <use xlink:href="#DejaVuSans-65" x="63.623047"/>
      <use xlink:href="#DejaVuSans-2212" x="125.146484"/>
      <use xlink:href="#DejaVuSans-35" x="208.935547"/>
      <use xlink:href="#DejaVuSans-2b" x="272.558594"/>
      <use xlink:href="#DejaVuSans-31" x="356.347656"/>
      <use xlink:href="#DejaVuSans-2e" x="419.970703"/>
      <use xlink:href="#DejaVuSans-30" x="451.757812"/>
      <use xlink:href="#DejaVuSans-36" x="515.380859"/>
      <use xlink:href="#DejaVuSans-39" x="579.003906"/>
      <use xlink:href="#DejaVuSans-30" x="642.626953"/>
      <use xlink:href="#DejaVuSans-30" x="706.25"/>
      <use xlink:href="#DejaVuSans-30" x="769.873047"/>
      <use xlink:href="#DejaVuSans-30" x="833.496094"/>
      <use xlink:href="#DejaVuSans-30" x="897.119141"/>
      <use xlink:href="#DejaVuSans-30" x="960.742188"/>
      <use xlink:href="#DejaVuSans-30" x="1024.365234"/>
     </g>
    </g>
   </g>
   <g id="matplotlib.axis_2">
    <g id="ytick_1">
     <g id="line2d_7">
      <defs>
       <path id="m77b2608459" d="M 0 0 
L -3.5 0 
" style="stroke: #000000; stroke-width: 0.8"/>
      </defs>
      <g>
       <use xlink:href="#m77b2608459" x="77.610938" y="280.852792" style="stroke: #000000; stroke-width: 0.8"/>
      </g>
     </g>
     <g id="text_9">
      <!-- −0.24558 -->
      <g transform="translate(20.878125 284.65201)scale(0.1 -0.1)">
       <defs>
        <path id="DejaVuSans-38" d="M 2034 2216 
Q 1584 2216 1326 1975 
Q 1069 1734 1069 1313 
Q 1069 891 1326 650 
Q 1584 409 2034 409 
Q 2484 409 2743 651 
Q 3003 894 3003 1313 
Q 3003 1734 2745 1975 
Q 2488 2216 2034 2216 
z
M 1403 2484 
Q 997 2584 770 2862 
Q 544 3141 544 3541 
Q 544 4100 942 4425 
Q 1341 4750 2034 4750 
Q 2731 4750 3128 4425 
Q 3525 4100 3525 3541 
Q 3525 3141 3298 2862 
Q 3072 2584 2669 2484 
Q 3125 2378 3379 2068 
Q 3634 1759 3634 1313 
Q 3634 634 3220 271 
Q 2806 -91 2034 -91 
Q 1263 -91 848 271 
Q 434 634 434 1313 
Q 434 1759 690 2068 
Q 947 2378 1403 2484 
z
M 1172 3481 
Q 1172 3119 1398 2916 
Q 1625 2713 2034 2713 
Q 2441 2713 2670 2916 
Q 2900 3119 2900 3481 
Q 2900 3844 2670 4047 
Q 2441 4250 2034 4250 
Q 1625 4250 1398 4047 
Q 1172 3844 1172 3481 
z
" transform="scale(0.015625)"/>
       </defs>
       <use xlink:href="#DejaVuSans-2212"/>
       <use xlink:href="#DejaVuSans-30" x="83.789062"/>
       <use xlink:href="#DejaVuSans-2e" x="147.412109"/>
       <use xlink:href="#DejaVuSans-32" x="179.199219"/>
       <use xlink:href="#DejaVuSans-34" x="242.822266"/>
       <use xlink:href="#DejaVuSans-35" x="306.445312"/>
       <use xlink:href="#DejaVuSans-35" x="370.068359"/>
       <use xlink:href="#DejaVuSans-38" x="433.691406"/>
      </g>
     </g>
    </g>
    <g id="ytick_2">
     <g id="line2d_8">
      <g>
       <use xlink:href="#m77b2608459" x="77.610938" y="248.338831" style="stroke: #000000; stroke-width: 0.8"/>
      </g>
     </g>
     <g id="text_10">
      <!-- −0.24556 -->
      <g transform="translate(20.878125 252.13805)scale(0.1 -0.1)">
       <use xlink:href="#DejaVuSans-2212"/>
       <use xlink:href="#DejaVuSans-30" x="83.789062"/>
       <use xlink:href="#DejaVuSans-2e" x="147.412109"/>
       <use xlink:href="#DejaVuSans-32" x="179.199219"/>
       <use xlink:href="#DejaVuSans-34" x="242.822266"/>
       <use xlink:href="#DejaVuSans-35" x="306.445312"/>
       <use xlink:href="#DejaVuSans-35" x="370.068359"/>
       <use xlink:href="#DejaVuSans-36" x="433.691406"/>
      </g>
     </g>
    </g>
    <g id="ytick_3">
     <g id="line2d_9">
      <g>
       <use xlink:href="#m77b2608459" x="77.610938" y="215.824871" style="stroke: #000000; stroke-width: 0.8"/>
      </g>
     </g>
     <g id="text_11">
      <!-- −0.24554 -->
      <g transform="translate(20.878125 219.62409)scale(0.1 -0.1)">
       <use xlink:href="#DejaVuSans-2212"/>
       <use xlink:href="#DejaVuSans-30" x="83.789062"/>
       <use xlink:href="#DejaVuSans-2e" x="147.412109"/>
       <use xlink:href="#DejaVuSans-32" x="179.199219"/>
       <use xlink:href="#DejaVuSans-34" x="242.822266"/>
       <use xlink:href="#DejaVuSans-35" x="306.445312"/>
       <use xlink:href="#DejaVuSans-35" x="370.068359"/>
       <use xlink:href="#DejaVuSans-34" x="433.691406"/>
      </g>
     </g>
    </g>
    <g id="ytick_4">
     <g id="line2d_10">
      <g>
       <use xlink:href="#m77b2608459" x="77.610938" y="183.31091" style="stroke: #000000; stroke-width: 0.8"/>
      </g>
     </g>
     <g id="text_12">
      <!-- −0.24552 -->
      <g transform="translate(20.878125 187.110129)scale(0.1 -0.1)">
       <use xlink:href="#DejaVuSans-2212"/>
       <use xlink:href="#DejaVuSans-30" x="83.789062"/>
       <use xlink:href="#DejaVuSans-2e" x="147.412109"/>
       <use xlink:href="#DejaVuSans-32" x="179.199219"/>
       <use xlink:href="#DejaVuSans-34" x="242.822266"/>
       <use xlink:href="#DejaVuSans-35" x="306.445312"/>
       <use xlink:href="#DejaVuSans-35" x="370.068359"/>
       <use xlink:href="#DejaVuSans-32" x="433.691406"/>
      </g>
     </g>
    </g>
    <g id="ytick_5">
     <g id="line2d_11">
      <g>
       <use xlink:href="#m77b2608459" x="77.610938" y="150.79695" style="stroke: #000000; stroke-width: 0.8"/>
      </g>
     </g>
     <g id="text_13">
      <!-- −0.24550 -->
      <g transform="translate(20.878125 154.596169)scale(0.1 -0.1)">
       <use xlink:href="#DejaVuSans-2212"/>
       <use xlink:href="#DejaVuSans-30" x="83.789062"/>
       <use xlink:href="#DejaVuSans-2e" x="147.412109"/>
       <use xlink:href="#DejaVuSans-32" x="179.199219"/>
       <use xlink:href="#DejaVuSans-34" x="242.822266"/>
       <use xlink:href="#DejaVuSans-35" x="306.445312"/>
       <use xlink:href="#DejaVuSans-35" x="370.068359"/>
       <use xlink:href="#DejaVuSans-30" x="433.691406"/>
      </g>
     </g>
    </g>
    <g id="ytick_6">
     <g id="line2d_12">
      <g>
       <use xlink:href="#m77b2608459" x="77.610938" y="118.282989" style="stroke: #000000; stroke-width: 0.8"/>
      </g>
     </g>
     <g id="text_14">
      <!-- −0.24548 -->
      <g transform="translate(20.878125 122.082208)scale(0.1 -0.1)">
       <use xlink:href="#DejaVuSans-2212"/>
       <use xlink:href="#DejaVuSans-30" x="83.789062"/>
       <use xlink:href="#DejaVuSans-2e" x="147.412109"/>
       <use xlink:href="#DejaVuSans-32" x="179.199219"/>
       <use xlink:href="#DejaVuSans-34" x="242.822266"/>
       <use xlink:href="#DejaVuSans-35" x="306.445312"/>
       <use xlink:href="#DejaVuSans-34" x="370.068359"/>
       <use xlink:href="#DejaVuSans-38" x="433.691406"/>
      </g>
     </g>
    </g>
    <g id="ytick_7">
     <g id="line2d_13">
      <g>
       <use xlink:href="#m77b2608459" x="77.610938" y="85.769029" style="stroke: #000000; stroke-width: 0.8"/>
      </g>
     </g>
     <g id="text_15">
      <!-- −0.24546 -->
      <g transform="translate(20.878125 89.568248)scale(0.1 -0.1)">
       <use xlink:href="#DejaVuSans-2212"/>
       <use xlink:href="#DejaVuSans-30" x="83.789062"/>
       <use xlink:href="#DejaVuSans-2e" x="147.412109"/>
       <use xlink:href="#DejaVuSans-32" x="179.199219"/>
       <use xlink:href="#DejaVuSans-34" x="242.822266"/>
       <use xlink:href="#DejaVuSans-35" x="306.445312"/>
       <use xlink:href="#DejaVuSans-34" x="370.068359"/>
       <use xlink:href="#DejaVuSans-36" x="433.691406"/>
      </g>
     </g>
    </g>
    <g id="ytick_8">
     <g id="line2d_14">
      <g>
       <use xlink:href="#m77b2608459" x="77.610938" y="53.255069" style="stroke: #000000; stroke-width: 0.8"/>
      </g>
     </g>
     <g id="text_16">
      <!-- −0.24544 -->
      <g transform="translate(20.878125 57.054287)scale(0.1 -0.1)">
       <use xlink:href="#DejaVuSans-2212"/>
       <use xlink:href="#DejaVuSans-30" x="83.789062"/>
       <use xlink:href="#DejaVuSans-2e" x="147.412109"/>
       <use xlink:href="#DejaVuSans-32" x="179.199219"/>
       <use xlink:href="#DejaVuSans-34" x="242.822266"/>
       <use xlink:href="#DejaVuSans-35" x="306.445312"/>
       <use xlink:href="#DejaVuSans-34" x="370.068359"/>
       <use xlink:href="#DejaVuSans-34" x="433.691406"/>
      </g>
     </g>
    </g>
    <g id="text_17">
     <!-- Y [m] -->
     <g transform="translate(14.798438 168.788969)rotate(-90)scale(0.1 -0.1)">
      <defs>
       <path id="DejaVuSans-59" d="M -13 4666 
L 666 4666 
L 1959 2747 
L 3244 4666 
L 3922 4666 
L 2272 2222 
L 2272 0 
L 1638 0 
L 1638 2222 
L -13 4666 
z
" transform="scale(0.015625)"/>
      </defs>
      <use xlink:href="#DejaVuSans-59"/>
      <use xlink:href="#DejaVuSans-20" x="61.083984"/>
      <use xlink:href="#DejaVuSans-5b" x="92.871094"/>
      <use xlink:href="#DejaVuSans-6d" x="131.884766"/>
      <use xlink:href="#DejaVuSans-5d" x="229.296875"/>
     </g>
    </g>
   </g>
   <g id="line2d_15">
    <path d="M 403.793739 265.87747 
L 400.922781 264.010575 
L 398.259331 262.147961 
L 395.559727 260.230007 
L 392.789382 258.223529 
L 390.325258 256.285914 
L 383.837967 250.857741 
L 376.345156 245.2206 
L 367.676257 239.506319 
L 360.152561 233.703192 
L 353.647172 228.181248 
L 343.102468 220.822886 
L 337.599924 216.835551 
L 328.75411 209.381015 
L 320.357752 203.919055 
L 312.045245 198.086164 
L 304.396561 190.452075 
L 297.23734 187.083734 
L 290.55918 181.056054 
L 282.860716 175.524445 
L 276.98537 171.883882 
L 270.557417 166.042931 
L 263.264703 160.331317 
L 256.512257 156.852841 
L 248.236726 149.145152 
L 240.667592 143.427981 
L 232.808031 137.777411 
L 227.628688 134.216655 
L 223.047409 130.371947 
L 216.231399 124.582957 
L 209.443643 121.116264 
L 202.110222 115.341923 
L 196.020521 109.409993 
L 187.53123 104.170121 
L 177.257866 96.410288 
L 170.625153 90.539263 
L 161.972977 85.181468 
L 156.433299 81.413484 
L 151.88527 77.590653 
L 147.443892 73.827281 
L 142.461578 70.019421 
L 134.8542 64.555122 
L 130.396347 60.686124 
L 120.526178 53.203042 
L 115.266846 49.433938 
L 107.704973 43.715157 
L 102.393705 39.989378 
L 93.843665 34.414125 
" clip-path="url(#pc2505ebbb7)" style="fill: none; stroke: #0000ff; stroke-width: 1.5; stroke-linecap: square"/>
   </g>
   <g id="line2d_16">
    <path d="M 418.49821 276.334125 
L 417.148013 274.365286 
L 415.801134 272.457124 
L 408.860497 268.709119 
L 404.481046 264.938073 
L 398.023808 259.567898 
L 383.232598 252.008444 
L 377.860483 246.218838 
L 372.01564 242.455996 
L 366.050221 234.964027 
L 356.709681 229.339866 
L 349.667063 223.578036 
L 336.344092 216.42301 
L 328.774558 210.500661 
L 323.889455 205.008155 
L 315.213306 199.249649 
L 310.626556 195.336898 
L 302.202271 190.035094 
L 291.024338 184.182932 
L 286.070438 178.552046 
L 281.650012 172.987394 
L 273.247508 169.023926 
L 265.055084 163.480543 
L 261.432402 157.739792 
L 254.072166 152.137338 
L 247.151531 146.30495 
L 242.200651 142.713269 
L 233.412578 137.184109 
L 230.222064 133.158542 
L 226.374148 129.335286 
L 217.015094 123.976013 
L 210.699246 118.177575 
L 197.792243 110.718169 
L 192.065761 105.199144 
L 183.741494 99.348992 
L 175.444318 93.643706 
L 169.135097 89.91939 
L 166.251451 86.199085 
L 159.891711 82.528424 
L 154.637615 78.65355 
L 148.613633 73.177166 
L 139.760723 67.545748 
L 133.59057 61.830786 
L 125.996704 56.076081 
L 121.659299 52.286446 
L 113.811353 48.517717 
L 107.667847 42.874748 
" clip-path="url(#pc2505ebbb7)" style="fill: none; stroke-dasharray: 5.55,2.4; stroke-dashoffset: 0; stroke: #ff0000; stroke-width: 1.5"/>
   </g>
   <g id="patch_3">
    <path d="M 77.610938 288.430125 
L 77.610938 22.318125 
" style="fill: none; stroke: #000000; stroke-width: 0.8; stroke-linejoin: miter; stroke-linecap: square"/>
   </g>
   <g id="patch_4">
    <path d="M 434.730937 288.430125 
L 434.730937 22.318125 
" style="fill: none; stroke: #000000; stroke-width: 0.8; stroke-linejoin: miter; stroke-linecap: square"/>
   </g>
   <g id="patch_5">
    <path d="M 77.610937 288.430125 
L 434.730937 288.430125 
" style="fill: none; stroke: #000000; stroke-width: 0.8; stroke-linejoin: miter; stroke-linecap: square"/>
   </g>
   <g id="patch_6">
    <path d="M 77.610937 22.318125 
L 434.730937 22.318125 
" style="fill: none; stroke: #000000; stroke-width: 0.8; stroke-linejoin: miter; stroke-linecap: square"/>
   </g>
   <g id="text_18">
    <!-- Odometry vs Fused Odometry -->
    <g transform="translate(166.004063 16.318125)scale(0.12 -0.12)">
     <defs>
      <path id="DejaVuSans-4f" d="M 2522 4238 
Q 1834 4238 1429 3725 
Q 1025 3213 1025 2328 
Q 1025 1447 1429 934 
Q 1834 422 2522 422 
Q 3209 422 3611 934 
Q 4013 1447 4013 2328 
Q 4013 3213 3611 3725 
Q 3209 4238 2522 4238 
z
M 2522 4750 
Q 3503 4750 4090 4092 
Q 4678 3434 4678 2328 
Q 4678 1225 4090 567 
Q 3503 -91 2522 -91 
Q 1538 -91 948 565 
Q 359 1222 359 2328 
Q 359 3434 948 4092 
Q 1538 4750 2522 4750 
z
" transform="scale(0.015625)"/>
      <path id="DejaVuSans-64" d="M 2906 2969 
L 2906 4863 
L 3481 4863 
L 3481 0 
L 2906 0 
L 2906 525 
Q 2725 213 2448 61 
Q 2172 -91 1784 -91 
Q 1150 -91 751 415 
Q 353 922 353 1747 
Q 353 2572 751 3078 
Q 1150 3584 1784 3584 
Q 2172 3584 2448 3432 
Q 2725 3281 2906 2969 
z
M 947 1747 
Q 947 1113 1208 752 
Q 1469 391 1925 391 
Q 2381 391 2643 752 
Q 2906 1113 2906 1747 
Q 2906 2381 2643 2742 
Q 2381 3103 1925 3103 
Q 1469 3103 1208 2742 
Q 947 2381 947 1747 
z
" transform="scale(0.015625)"/>
      <path id="DejaVuSans-6f" d="M 1959 3097 
Q 1497 3097 1228 2736 
Q 959 2375 959 1747 
Q 959 1119 1226 758 
Q 1494 397 1959 397 
Q 2419 397 2687 759 
Q 2956 1122 2956 1747 
Q 2956 2369 2687 2733 
Q 2419 3097 1959 3097 
z
M 1959 3584 
Q 2709 3584 3137 3096 
Q 3566 2609 3566 1747 
Q 3566 888 3137 398 
Q 2709 -91 1959 -91 
Q 1206 -91 779 398 
Q 353 888 353 1747 
Q 353 2609 779 3096 
Q 1206 3584 1959 3584 
z
" transform="scale(0.015625)"/>
      <path id="DejaVuSans-74" d="M 1172 4494 
L 1172 3500 
L 2356 3500 
L 2356 3053 
L 1172 3053 
L 1172 1153 
Q 1172 725 1289 603 
Q 1406 481 1766 481 
L 2356 481 
L 2356 0 
L 1766 0 
Q 1100 0 847 248 
Q 594 497 594 1153 
L 594 3053 
L 172 3053 
L 172 3500 
L 594 3500 
L 594 4494 
L 1172 4494 
z
" transform="scale(0.015625)"/>
      <path id="DejaVuSans-72" d="M 2631 2963 
Q 2534 3019 2420 3045 
Q 2306 3072 2169 3072 
Q 1681 3072 1420 2755 
Q 1159 2438 1159 1844 
L 1159 0 
L 581 0 
L 581 3500 
L 1159 3500 
L 1159 2956 
Q 1341 3275 1631 3429 
Q 1922 3584 2338 3584 
Q 2397 3584 2469 3576 
Q 2541 3569 2628 3553 
L 2631 2963 
z
" transform="scale(0.015625)"/>
      <path id="DejaVuSans-79" d="M 2059 -325 
Q 1816 -950 1584 -1140 
Q 1353 -1331 966 -1331 
L 506 -1331 
L 506 -850 
L 844 -850 
Q 1081 -850 1212 -737 
Q 1344 -625 1503 -206 
L 1606 56 
L 191 3500 
L 800 3500 
L 1894 763 
L 2988 3500 
L 3597 3500 
L 2059 -325 
z
" transform="scale(0.015625)"/>
      <path id="DejaVuSans-76" d="M 191 3500 
L 800 3500 
L 1894 563 
L 2988 3500 
L 3597 3500 
L 2284 0 
L 1503 0 
L 191 3500 
z
" transform="scale(0.015625)"/>
      <path id="DejaVuSans-73" d="M 2834 3397 
L 2834 2853 
Q 2591 2978 2328 3040 
Q 2066 3103 1784 3103 
Q 1356 3103 1142 2972 
Q 928 2841 928 2578 
Q 928 2378 1081 2264 
Q 1234 2150 1697 2047 
L 1894 2003 
Q 2506 1872 2764 1633 
Q 3022 1394 3022 966 
Q 3022 478 2636 193 
Q 2250 -91 1575 -91 
Q 1294 -91 989 -36 
Q 684 19 347 128 
L 347 722 
Q 666 556 975 473 
Q 1284 391 1588 391 
Q 1994 391 2212 530 
Q 2431 669 2431 922 
Q 2431 1156 2273 1281 
Q 2116 1406 1581 1522 
L 1381 1569 
Q 847 1681 609 1914 
Q 372 2147 372 2553 
Q 372 3047 722 3315 
Q 1072 3584 1716 3584 
Q 2034 3584 2315 3537 
Q 2597 3491 2834 3397 
z
" transform="scale(0.015625)"/>
      <path id="DejaVuSans-46" d="M 628 4666 
L 3309 4666 
L 3309 4134 
L 1259 4134 
L 1259 2759 
L 3109 2759 
L 3109 2228 
L 1259 2228 
L 1259 0 
L 628 0 
L 628 4666 
z
" transform="scale(0.015625)"/>
      <path id="DejaVuSans-75" d="M 544 1381 
L 544 3500 
L 1119 3500 
L 1119 1403 
Q 1119 906 1312 657 
Q 1506 409 1894 409 
Q 2359 409 2629 706 
Q 2900 1003 2900 1516 
L 2900 3500 
L 3475 3500 
L 3475 0 
L 2900 0 
L 2900 538 
Q 2691 219 2414 64 
Q 2138 -91 1772 -91 
Q 1169 -91 856 284 
Q 544 659 544 1381 
z
M 1991 3584 
L 1991 3584 
z
" transform="scale(0.015625)"/>
     </defs>
     <use xlink:href="#DejaVuSans-4f"/>
     <use xlink:href="#DejaVuSans-64" x="78.710938"/>
     <use xlink:href="#DejaVuSans-6f" x="142.1875"/>
     <use xlink:href="#DejaVuSans-6d" x="203.369141"/>
     <use xlink:href="#DejaVuSans-65" x="300.78125"/>
     <use xlink:href="#DejaVuSans-74" x="362.304688"/>
     <use xlink:href="#DejaVuSans-72" x="401.513672"/>
     <use xlink:href="#DejaVuSans-79" x="442.626953"/>
     <use xlink:href="#DejaVuSans-20" x="501.806641"/>
     <use xlink:href="#DejaVuSans-76" x="533.59375"/>
     <use xlink:href="#DejaVuSans-73" x="592.773438"/>
     <use xlink:href="#DejaVuSans-20" x="644.873047"/>
     <use xlink:href="#DejaVuSans-46" x="676.660156"/>
     <use xlink:href="#DejaVuSans-75" x="728.679688"/>
     <use xlink:href="#DejaVuSans-73" x="792.058594"/>
     <use xlink:href="#DejaVuSans-65" x="844.158203"/>
     <use xlink:href="#DejaVuSans-64" x="905.681641"/>
     <use xlink:href="#DejaVuSans-20" x="969.158203"/>
     <use xlink:href="#DejaVuSans-4f" x="1000.945312"/>
     <use xlink:href="#DejaVuSans-64" x="1079.65625"/>
     <use xlink:href="#DejaVuSans-6f" x="1143.132812"/>
     <use xlink:href="#DejaVuSans-6d" x="1204.314453"/>
     <use xlink:href="#DejaVuSans-65" x="1301.726562"/>
     <use xlink:href="#DejaVuSans-74" x="1363.25"/>
     <use xlink:href="#DejaVuSans-72" x="1402.458984"/>
     <use xlink:href="#DejaVuSans-79" x="1443.572266"/>
    </g>
   </g>
   <g id="legend_1">
    <g id="patch_7">
     <path d="M 365.65125 59.674375 
L 427.730937 59.674375 
Q 429.730937 59.674375 429.730937 57.674375 
L 429.730937 29.318125 
Q 429.730937 27.318125 427.730937 27.318125 
L 365.65125 27.318125 
Q 363.65125 27.318125 363.65125 29.318125 
L 363.65125 57.674375 
Q 363.65125 59.674375 365.65125 59.674375 
z
" style="fill: #ffffff; opacity: 0.8; stroke: #cccccc; stroke-linejoin: miter"/>
    </g>
    <g id="line2d_17">
     <path d="M 367.65125 35.416562 
L 377.65125 35.416562 
L 387.65125 35.416562 
" style="fill: none; stroke: #0000ff; stroke-width: 1.5; stroke-linecap: square"/>
    </g>
    <g id="text_19">
     <!-- Odom -->
     <g transform="translate(395.65125 38.916562)scale(0.1 -0.1)">
      <use xlink:href="#DejaVuSans-4f"/>
      <use xlink:href="#DejaVuSans-64" x="78.710938"/>
      <use xlink:href="#DejaVuSans-6f" x="142.1875"/>
      <use xlink:href="#DejaVuSans-6d" x="203.369141"/>
     </g>
    </g>
    <g id="line2d_18">
     <path d="M 367.65125 50.094687 
L 377.65125 50.094687 
L 387.65125 50.094687 
" style="fill: none; stroke-dasharray: 5.55,2.4; stroke-dashoffset: 0; stroke: #ff0000; stroke-width: 1.5"/>
    </g>
    <g id="text_20">
     <!-- Fused -->
     <g transform="translate(395.65125 53.594687)scale(0.1 -0.1)">
      <use xlink:href="#DejaVuSans-46"/>
      <use xlink:href="#DejaVuSans-75" x="52.019531"/>
      <use xlink:href="#DejaVuSans-73" x="115.398438"/>
      <use xlink:href="#DejaVuSans-65" x="167.498047"/>
      <use xlink:href="#DejaVuSans-64" x="229.021484"/>
     </g>
    </g>
   </g>
  </g>
 </g>
 <defs>
  <clipPath id="pc2505ebbb7">
   <rect x="77.610938" y="22.318125" width="357.12" height="266.112"/>
  </clipPath>
 </defs>
</svg>
